#!OML:ASF E:\emotionWalksFemale\Project 1\Capture day 1\Session 1\Female1.ASF
:FULLY-SPECIFIED
:DEGREES
315
root 10.359 15.5338 19.2373 539.04 6.85153 -178.824
lowerback 8.92788 1.71048 2.23295
upperback -4.73729 2.73932 0.549564
thorax -10.0115 1.23218 -1.14899
lowerneck -6.81911 0.678625 -3.83193
upperneck 4.49388 1.02292 4.24652
head 2.59986 0.58641 2.10016
rclavicle 2.23633e-015 -4.77083e-015
rhumerus -47.8334 12.0477 -97.6953
rradius 38.6698
rwrist 12.2598
rhand -1.88023 -54.8429
rfingers 7.12502
rthumb 23.7883 -83.3903
lclavicle 2.23633e-015 -4.77083e-015
lhumerus -45.1173 -3.10663 90.7429
lradius 33.6147
lwrist -15.4743
lhand 2.08311 -33.6821
lfingers 7.12502
lthumb 27.5841 -5.68357
rfemur -1.64881 21.3564 24.6875
rtibia 15.4647
rfoot -15.7894 -30.2683
rtoes -7.13529
lfemur -6.65944 -24.7041 -22.6639
ltibia 23.2127
lfoot -20.2821 30.545
ltoes -47.9492
316
root 10.3671 15.534 19.2338 538.99 6.67469 -178.81
lowerback 8.61488 1.68049 2.38159
upperback -4.55383 2.68882 0.473477
thorax -9.61429 1.20053 -1.28807
lowerneck -6.89598 0.647889 -3.94984
upperneck 4.43853 0.985584 4.47132
head 2.59852 0.574799 2.19575
rclavicle 4.21672e-014 -2.48481e-015
rhumerus -47.6381 12.542 -98.2069
rradius 38.7631
rwrist 12.3207
rhand -1.17363 -54.2602
rfingers 7.12502
rthumb 24.4658 -82.7177
lclavicle 4.21672e-014 -2.48481e-015
lhumerus -44.7641 -3.57208 90.6705
lradius 33.6554
lwrist -15.1054
lhand 2.26169 -33.7316
lfingers 7.12502
lthumb 27.7548 -5.76048
rfemur -1.5596 21.2561 24.7774
rtibia 15.5065
rfoot -16.1202 -30.3147
rtoes -5.95103
lfemur -6.61115 -24.5886 -22.6111
ltibia 23.1788
lfoot -20.0982 30.263
ltoes -47.9385
317
root 10.3742 15.5347 19.2337 538.996 6.59832 -178.792
lowerback 8.62894 1.67282 2.41525
upperback -4.58699 2.68414 0.456604
thorax -9.6571 1.19506 -1.32551
lowerneck -6.91069 0.614807 -4.0125
upperneck 4.50551 0.940421 4.58796
head 2.62665 0.55578 2.24597
rclavicle -2.19036e-014 -1.93815e-014
rhumerus -47.8066 13.2842 -98.8453
rradius 38.9032
rwrist 11.8927
rhand -0.442106 -54.2179
rfingers 7.12502
rthumb 25.1668 -82.5789
lclavicle -2.19036e-014 -1.93815e-014
lhumerus -44.7393 -3.89651 90.6347
lradius 33.7271
lwrist -14.8133
lhand 2.3864 -33.8394
lfingers 7.12502
lthumb 27.8741 -5.88758
rfemur -1.57778 21.0264 24.8164
rtibia 15.5463
rfoot -16.1183 -30.1568
rtoes -5.48899
lfemur -6.64243 -24.5345 -22.5342
ltibia 23.1717
lfoot -19.9391 29.9945
ltoes -47.8399
318
root 10.381 15.5339 19.2342 539.039 6.72334 -178.789
lowerback 8.88103 1.70465 2.30105
upperback -4.76532 2.73981 0.527986
thorax -10.0106 1.22778 -1.20917
lowerneck -7.00264 0.584107 -3.94861
upperneck 4.7751 0.89796 4.42162
head 2.73605 0.530493 2.18271
rclavicle -1.02374e-014 -3.57812e-015
rhumerus -48.1671 14.0188 -99.3314
rradius 38.9819
rwrist 11.726
rhand 0.5138 -54.3207
rfingers 7.12502
rthumb 26.0824 -82.5498
lclavicle -1.02374e-014 -3.57812e-015
lhumerus -44.9039 -3.94591 90.6047
lradius 33.8345
lwrist -14.6261
lhand 2.63537 -33.7426
lfingers 7.12502
lthumb 28.1121 -5.8296
rfemur -1.68898 20.9079 24.8072
rtibia 15.6004
rfoot -15.6485 -29.9997
rtoes -6.04876
lfemur -6.67308 -24.5083 -22.4858
ltibia 23.1728
lfoot -20.0776 29.8219
ltoes -47.2434
319
root 10.3873 15.5311 19.2338 539.038 6.83708 -178.779
lowerback 9.17103 1.74099 2.19548
upperback -4.93389 2.80535 0.620831
thorax -10.3784 1.26585 -1.07791
lowerneck -7.11971 0.561258 -3.904
upperneck 5.12809 0.869431 4.22991
head 2.87824 0.510862 2.11679
rclavicle -1.2424e-016 -3.97569e-015
rhumerus -48.4601 14.6165 -99.582
rradius 38.9209
rwrist 11.9681
rhand 1.22511 -53.8323
rfingers 7.12502
rthumb 26.7633 -81.9591
lclavicle -1.2424e-016 -3.97569e-015
lhumerus -45.0107 -3.91305 90.5744
lradius 33.8567
lwrist -14.5304
lhand 3.43867 -33.0445
lfingers 7.12502
lthumb 28.8796 -5.26012
rfemur -1.75191 20.9284 24.8375
rtibia 15.6997
rfoot -15.2009 -29.9677
rtoes -6.08885
lfemur -6.63821 -24.4106 -22.4548
ltibia 23.1555
lfoot -19.9055 29.8088
ltoes -47.0532
320
root 10.3934 15.5287 19.2333 538.956 6.75096 -178.829
lowerback 8.79476 1.70505 2.28427
upperback -4.66483 2.73237 0.567658
thorax -9.85111 1.22878 -1.15029
lowerneck -7.15818 0.572374 -3.91399
upperneck 4.90844 0.889112 4.2574
head 2.81019 0.521616 2.12551
rclavicle -7.25564e-015 5.36719e-015
rhumerus -48.1107 15.2289 -99.795
rradius 38.8766
rwrist 12.163
rhand 1.25783 -53.3336
rfingers 7.12502
rthumb 26.7946 -81.4556
lclavicle -7.25564e-015 5.36719e-015
lhumerus -44.4934 -3.98697 90.3806
lradius 33.8834
lwrist -14.4681
lhand 4.99338 -31.6518
lfingers 7.12502
lthumb 30.3637 -4.131
rfemur -1.71054 20.7809 24.8358
rtibia 15.8379
rfoot -15.1058 -29.869
rtoes -5.60386
lfemur -6.54349 -24.2611 -22.5086
ltibia 23.1194
lfoot -19.3849 29.6481
ltoes -47.5738
321
root 10.3992 15.526 19.2316 538.865 6.65599 -178.867
lowerback 8.6555 1.68857 2.34165
upperback -4.51742 2.69765 0.520863
thorax -9.60201 1.20891 -1.21736
lowerneck -7.13928 0.551101 -3.87675
upperneck 4.70613 0.860594 4.26636
head 2.73939 0.50846 2.11673
rclavicle 1.963e-015 -6.55989e-015
rhumerus -48.0023 15.7133 -100.007
rradius 38.9722
rwrist 12.358
rhand 0.657639 -53.1328
rfingers 7.12502
rthumb 26.2201 -81.3415
lclavicle 1.963e-015 -6.55989e-015
lhumerus -44.1605 -4.17086 90.2576
lradius 33.8509
lwrist -14.4602
lhand 5.84182 -30.8372
lfingers 7.12502
lthumb 31.1726 -3.46872
rfemur -1.68555 20.6629 24.8467
rtibia 16.0092
rfoot -15.3649 -29.7409
rtoes -4.61691
lfemur -6.41057 -24.2226 -22.5654
ltibia 23.0622
lfoot -19.2973 29.2686
ltoes -47.3658
322
root 10.404 15.5238 19.2289 538.763 6.65919 -178.956
lowerback 8.70003 1.73056 2.35899
upperback -4.46806 2.74506 0.444544
thorax -9.56761 1.22685 -1.31648
lowerneck -7.21641 0.506791 -3.70866
upperneck 4.72754 0.79411 4.1433
head 2.76316 0.475012 2.04343
rclavicle -6.00081e-015 -1.59028e-015
rhumerus -47.9458 16.2118 -100.305
rradius 38.9051
rwrist 12.2056
rhand -0.299386 -53.1001
rfingers 7.12502
rthumb 25.3036 -81.4417
lclavicle -6.00081e-015 -1.59028e-015
lhumerus -43.8884 -4.37166 90.1339
lradius 33.659
lwrist -14.6241
lhand 4.54554 -31.7914
lfingers 7.12502
lthumb 29.9364 -4.19268
rfemur -1.67524 20.5393 24.7912
rtibia 16.1662
rfoot -15.3064 -29.6149
rtoes -4.58742
lfemur -6.23494 -24.3081 -22.7005
ltibia 22.9936
lfoot -19.4606 28.9961
ltoes -46.0967
323
root 10.4093 15.5246 19.2257 538.746 6.73365 -179.087
lowerback 8.65288 1.76823 2.26284
upperback -4.47093 2.77835 0.407622
thorax -9.5439 1.24804 -1.30559
lowerneck -7.22399 0.52866 -3.61235
upperneck 4.77181 0.820737 4.00443
head 2.77747 0.48486 1.98144
rclavicle -6.7711e-015 -1.02374e-014
rhumerus -47.9226 16.6378 -100.494
rradius 38.7271
rwrist 12.037
rhand -1.05156 -53.1345
rfingers 7.12502
rthumb 24.5828 -81.5761
lclavicle -6.7711e-015 -1.02374e-014
lhumerus -43.7699 -4.37617 90.0005
lradius 33.6196
lwrist -14.8673
lhand 1.22956 -34.3669
lfingers 7.12502
lthumb 26.7675 -6.24073
rfemur -1.71941 20.3893 24.6526
rtibia 16.255
rfoot -15.0894 -29.4395
rtoes -5.02624
lfemur -6.18222 -24.2767 -22.8411
ltibia 22.9538
lfoot -19.2924 28.9395
ltoes -45.5355
324
root 10.4158 15.5259 19.2217 538.874 6.87662 -179.048
lowerback 8.44276 1.81438 2.26942
upperback -4.50477 2.84418 0.449646
thorax -9.45654 1.2848 -1.26779
lowerneck -7.10828 0.558517 -3.67304
upperneck 4.71776 0.86517 3.97843
head 2.73544 0.50352 1.98314
rclavicle -1.24986e-014 -7.45443e-015
rhumerus -47.875 16.8808 -100.475
rradius 38.5933
rwrist 12.011
rhand -1.33997 -53.2145
rfingers 7.12502
rthumb 24.3063 -81.6935
lclavicle -1.24986e-014 -7.45443e-015
lhumerus -43.7544 -4.38803 89.8956
lradius 33.699
lwrist -14.9792
lhand 1.38385 -34.1176
lfingers 7.12502
lthumb 26.9152 -6.01408
rfemur -1.88744 20.4291 24.662
rtibia 16.3057
rfoot -15.0771 -29.3227
rtoes -4.69174
lfemur -6.3129 -24.2016 -22.7256
ltibia 22.954
lfoot -19.0167 28.9916
ltoes -45.7684
325
root 10.4229 15.5248 19.2161 538.895 7.04449 -178.954
lowerback 8.36436 1.89642 2.35606
upperback -4.51468 2.96794 0.479699
thorax -9.41449 1.3422 -1.30124
lowerneck -6.99271 0.534355 -3.80347
upperneck 4.64303 0.837661 4.07839
head 2.69044 0.489952 2.03618
rclavicle 2.29596e-014 -6.36111e-015
rhumerus -47.81 17.0234 -100.394
rradius 38.6015
rwrist 12.1407
rhand -0.968933 -53.6467
rfingers 7.12502
rthumb 24.662 -82.0776
lclavicle 2.29596e-014 -6.36111e-015
lhumerus -43.7394 -4.53581 89.819
lradius 33.8002
lwrist -14.9212
lhand 1.61509 -34.2099
lfingers 7.12502
lthumb 27.1364 -6.14068
rfemur -1.91644 20.5614 24.783
rtibia 16.343
rfoot -15.1125 -29.2602
rtoes -4.63347
lfemur -6.29155 -24.1857 -22.6141
ltibia 22.9586
lfoot -19.1692 29.0121
ltoes -45.7796
326
root 10.4289 15.5199 19.2074 538.645 6.7742 -178.983
lowerback 8.53798 1.82605 2.40516
upperback -4.46819 2.87578 0.442785
thorax -9.46501 1.2901 -1.35903
lowerneck -6.962 0.489342 -3.86715
upperneck 4.637 0.777352 4.18118
head 2.68606 0.46239 2.07908
rclavicle 2.36057e-014 6.36111e-015
rhumerus -47.8714 17.2455 -100.529
rradius 38.5307
rwrist 11.5139
rhand -2.16457 -53.2122
rfingers 7.12502
rthumb 23.5155 -81.7948
lclavicle 2.36057e-014 6.36111e-015
lhumerus -43.7553 -4.6869 89.7269
lradius 33.9815
lwrist -14.739
lhand 1.71169 -33.9957
lfingers 7.12502
lthumb 27.2288 -5.94092
rfemur -1.52003 20.6008 24.9255
rtibia 16.3265
rfoot -15.3256 -29.4973
rtoes -4.28414
lfemur -6.00167 -24.245 -22.7449
ltibia 22.9761
lfoot -19.4101 28.727
ltoes -46.0065
327
root 10.4367 15.5197 19.2025 538.547 6.69993 -179.042
lowerback 8.72833 1.82914 2.4099
upperback -4.54454 2.88274 0.367938
thorax -9.65722 1.28615 -1.45244
lowerneck -6.87863 0.445887 -3.86846
upperneck 4.7098 0.710306 4.28789
head 2.6986 0.432673 2.11225
rclavicle -1.32316e-014 -1.37161e-014
rhumerus -48.0091 17.2078 -100.598
rradius 38.5052
rwrist 11.4551
rhand -2.5563 -53.4855
rfingers 7.12502
rthumb 23.1397 -82.1158
lclavicle -1.32316e-014 -1.37161e-014
lhumerus -43.8634 -4.88467 89.632
lradius 34.1511
lwrist -14.5165
lhand 1.85677 -33.7567
lfingers 7.12502
lthumb 27.3676 -5.72379
rfemur -1.33754 20.6147 24.9461
rtibia 16.2724
rfoot -15.4306 -29.5174
rtoes -3.74337
lfemur -5.88195 -24.1825 -22.8152
ltibia 22.9954
lfoot -19.5621 28.4281
ltoes -45.9389
328
root 10.4468 15.5236 19.2103 538.596 6.46424 -179.052
lowerback 8.98564 1.7884 2.48784
upperback -4.69393 2.8444 0.259546
thorax -9.9673 1.25231 -1.62024
lowerneck -6.81267 0.424345 -3.83055
upperneck 4.78909 0.667289 4.4478
head 2.71571 0.418262 2.15756
rclavicle -9.00743e-015 2.88238e-015
rhumerus -48.1416 17.1737 -100.73
rradius 38.4062
rwrist 11.2489
rhand -2.77184 -54.0908
rfingers 7.12502
rthumb 22.9329 -82.7469
lclavicle -9.00743e-015 2.88238e-015
lhumerus -43.9219 -5.12565 89.4618
lradius 34.2769
lwrist -14.2406
lhand 1.83721 -33.8416
lfingers 7.12502
lthumb 27.3489 -5.80575
rfemur -1.37661 20.5491 24.9682
rtibia 16.2612
rfoot -15.5201 -29.6076
rtoes -3.31726
lfemur -6.02903 -24.0376 -22.6661
ltibia 22.9851
lfoot -19.8255 27.7314
ltoes -45.459
329
root 10.4602 15.5303 19.2376 538.841 5.85196 -179.017
lowerback 9.24771 1.60115 2.51933
upperback -4.87549 2.6098 0.187062
thorax -10.3302 1.12779 -1.6906
lowerneck -6.86759 0.411847 -3.70233
upperneck 4.84895 0.639024 4.46822
head 2.74722 0.408804 2.14157
rclavicle -3.41475e-014 -4.47266e-016
rhumerus -48.0872 17.2252 -100.82
rradius 38.2254
rwrist 10.757
rhand -2.66047 -54.5527
rfingers 7.12502
rthumb 23.0398 -83.1955
lclavicle -3.41475e-014 -4.47266e-016
lhumerus -43.7801 -5.16974 89.1754
lradius 34.3535
lwrist -14.0661
lhand 1.44497 -34.0843
lfingers 7.12502
lthumb 26.9737 -5.98987
rfemur -1.66092 20.3036 24.9776
rtibia 16.2218
rfoot -15.4844 -29.8938
rtoes -3.01863
lfemur -6.58264 -23.7081 -22.2703
ltibia 22.9613
lfoot -19.5801 26.7186
ltoes -45.6575
